<?xml version="1.0" standalone="no"?>
<!DOCTYPE svg PUBLIC "-//W3C//DTD SVG 20010904//EN"
 "http://www.w3.org/TR/2001/REC-SVG-20010904/DTD/svg10.dtd">
<svg version="1.0" xmlns="http://www.w3.org/2000/svg"
 width="700.000000pt" height="700.000000pt" viewBox="0 0 700.000000 700.000000"
 preserveAspectRatio="xMidYMid meet">
<metadata>
Created by potrace 1.14, written by Peter Selinger 2001-2017
</metadata>
<g transform="translate(0.000000,700.000000) scale(0.100000,-0.100000)"
fill="#000000" stroke="none">
<path d="M1051 4158 c-53 -118 -250 -560 -293 -658 -11 -25 -24 -54 -29 -65
-148 -332 -250 -562 -252 -569 -1 -5 28 -9 66 -10 l67 -1 26 80 c30 91 162
436 169 443 9 10 486 5 496 -5 12 -12 91 -207 153 -377 l51 -139 100 0 c80 0
99 3 97 14 -3 13 -182 436 -221 524 -10 22 -94 217 -186 433 -155 364 -169
392 -192 392 -20 0 -29 -10 -52 -62z m34 -258 c40 -98 56 -136 66 -155 31 -66
116 -271 113 -274 -7 -8 -414 -5 -414 3 0 5 37 95 81 200 140 330 122 303 154
226z"/>
<path d="M2954 4185 c-2 -5 -2 -307 -1 -670 l2 -660 48 1 c26 1 50 3 53 6 2 3
5 240 5 527 0 352 3 521 10 521 6 0 16 -6 22 -13 10 -11 113 -125 228 -252
170 -188 248 -275 274 -304 64 -73 96 -108 235 -261 52 -58 97 -107 100 -110
3 -3 27 -31 53 -62 39 -45 54 -56 75 -55 l27 2 1 668 c0 367 -2 667 -5 668
-59 6 -100 2 -103 -11 -2 -8 -3 -234 -3 -502 1 -364 -2 -488 -11 -488 -6 0
-48 39 -92 88 -44 48 -91 99 -104 113 -12 14 -61 67 -108 119 -47 51 -92 100
-101 109 -9 9 -67 72 -129 141 -63 69 -132 145 -155 169 -80 86 -91 98 -169
183 -71 77 -81 85 -113 85 -19 -1 -37 -6 -39 -12z"/>
<path d="M5544 4191 c-2 -3 -4 -304 -4 -670 l1 -666 84 0 c66 0 85 3 87 15 2
8 3 162 3 343 -1 254 2 327 12 327 13 0 423 -476 519 -603 l61 -81 110 0 c119
-1 121 0 76 49 -10 11 -47 56 -83 100 -35 44 -67 82 -70 85 -3 3 -52 59 -110
125 -58 66 -116 133 -130 149 -14 15 -34 38 -45 50 -11 12 -47 53 -80 91 -33
37 -65 74 -72 80 -13 14 77 109 400 419 103 99 187 182 187 185 0 3 -33 6 -72
6 -65 0 -76 -3 -96 -25 -13 -14 -121 -126 -240 -249 -120 -123 -219 -226 -222
-230 -3 -3 -28 -27 -57 -53 -92 -84 -88 -94 -88 254 l0 301 -84 1 c-45 1 -85
-1 -87 -3z"/>
<path d="M4936 3873 c-4 -9 -3 -20 1 -24 4 -4 9 3 9 17 2 28 -1 31 -10 7z"/>
<path d="M2193 3795 c0 -22 2 -30 4 -17 2 12 2 30 0 40 -3 9 -5 -1 -4 -23z"/>
<path d="M4935 3820 c-3 -5 -1 -10 4 -10 6 0 11 5 11 10 0 6 -2 10 -4 10 -3 0
-8 -4 -11 -10z"/>
<path d="M4939 3798 c-5 -17 -4 -48 3 -48 4 0 7 11 6 25 -2 21 -6 31 -9 23z"/>
<path d="M2192 3710 c0 -14 2 -19 5 -12 2 6 2 18 0 25 -3 6 -5 1 -5 -13z"/>
<path d="M4933 3715 c0 -8 4 -12 9 -9 4 3 8 9 8 15 0 5 -4 9 -8 9 -5 0 -9 -7
-9 -15z"/>
<path d="M4939 3683 c0 -5 -2 -18 -3 -30 -2 -13 1 -23 5 -23 4 0 7 14 7 30 -1
27 -7 42 -9 23z"/>
<path d="M2192 3655 c0 -16 2 -22 5 -12 2 9 2 23 0 30 -3 6 -5 -1 -5 -18z"/>
<path d="M2192 3595 c0 -16 2 -22 5 -12 2 9 2 23 0 30 -3 6 -5 -1 -5 -18z"/>
<path d="M4933 3595 c0 -8 4 -12 9 -9 4 3 8 9 8 15 0 5 -4 9 -8 9 -5 0 -9 -7
-9 -15z"/>
<path d="M4936 3553 c-4 -9 -3 -20 1 -24 4 -4 9 3 9 17 2 28 -1 31 -10 7z"/>
<path d="M2192 3540 c0 -14 2 -19 5 -12 2 6 2 18 0 25 -3 6 -5 1 -5 -13z"/>
<path d="M4935 3500 c-3 -5 -1 -10 4 -10 6 0 11 5 11 10 0 6 -2 10 -4 10 -3 0
-8 -4 -11 -10z"/>
<path d="M2192 3465 c0 -16 2 -22 5 -12 2 9 2 23 0 30 -3 6 -5 -1 -5 -18z"/>
<path d="M4939 3478 c-5 -17 -4 -48 3 -48 4 0 7 11 6 25 -2 21 -6 31 -9 23z"/>
<path d="M2192 3390 c0 -14 2 -19 5 -12 2 6 2 18 0 25 -3 6 -5 1 -5 -13z"/>
<path d="M4933 3395 c0 -8 4 -12 9 -9 4 3 8 9 8 15 0 5 -4 9 -8 9 -5 0 -9 -7
-9 -15z"/>
<path d="M4939 3363 c0 -5 -2 -18 -3 -30 -2 -13 1 -23 5 -23 4 0 7 14 7 30 -1
27 -7 42 -9 23z"/>
<path d="M2192 3335 c0 -16 2 -22 5 -12 2 9 2 23 0 30 -3 6 -5 -1 -5 -18z"/>
<path d="M2192 3275 c0 -16 2 -22 5 -12 2 9 2 23 0 30 -3 6 -5 -1 -5 -18z"/>
<path d="M4933 3275 c0 -8 4 -12 9 -9 4 3 8 9 8 15 0 5 -4 9 -8 9 -5 0 -9 -7
-9 -15z"/>
<path d="M4936 3233 c-4 -9 -3 -20 1 -24 4 -4 9 3 9 17 2 28 -1 31 -10 7z"/>
<path d="M2192 3220 c0 -14 2 -19 5 -12 2 6 2 18 0 25 -3 6 -5 1 -5 -13z"/>
<path d="M4935 3180 c-3 -5 -1 -10 4 -10 6 0 11 5 11 10 0 6 -2 10 -4 10 -3 0
-8 -4 -11 -10z"/>
</g>
</svg>
